<svg width="142" height="31" viewBox="0 0 142 31" fill="none" xmlns="http://www.w3.org/2000/svg">
<g clip-path="url(#clip0_0_67)">
<path fill-rule="evenodd" clip-rule="evenodd" d="M7.08321 20.3242C6.11287 20.3242 5.2985 20.6539 4.63992 21.3123C3.981 21.9712 3.65155 22.8705 3.65155 24.0098C3.65155 25.1494 3.98519 26.0529 4.65344 26.7206C5.32137 27.3883 6.14025 27.7221 7.11058 27.7221C7.97054 27.7221 8.65701 27.5043 9.16964 27.0678C9.68177 26.6318 10.0296 26.1109 10.2128 25.5054L13.4248 26.547C13.0956 27.7582 12.3817 28.7995 11.2835 29.6718C10.1852 30.5441 8.79443 30.9804 7.11058 30.9804C5.09713 30.9804 3.40861 30.3173 2.04553 28.9907C0.681955 27.6646 0 26.0041 0 24.0098C0 21.998 0.672769 20.3334 2.01798 19.0155C3.36334 17.6981 5.02414 17.0392 7.00088 17.0392C8.72096 17.0392 10.1305 17.471 11.2287 18.3345C12.3268 19.1983 13.0311 20.2441 13.3424 21.4726L10.0757 22.5409C9.63636 21.0631 8.63847 20.3242 7.08321 20.3242Z" fill="#26295D"/>
<path fill-rule="evenodd" clip-rule="evenodd" d="M19.7626 28.3313C20.6062 28.3313 21.3018 28.0948 21.8497 27.622C22.3971 27.1499 22.6709 26.3692 22.6709 25.2807V24.6921L19.6819 25.1471C18.5864 25.3075 18.0392 25.8605 18.0392 26.8061C18.0392 27.2341 18.1914 27.5954 18.497 27.8898C18.802 28.1841 19.2241 28.3313 19.7626 28.3313ZM14.4575 27.02C14.4575 25.8964 14.8252 24.9959 15.5616 24.3175C16.2976 23.6399 17.2489 23.2117 18.4162 23.0331L21.6746 22.5515C22.3384 22.4623 22.6709 22.15 22.6709 21.6149C22.6709 21.1159 22.4776 20.7051 22.0919 20.3841C21.7057 20.063 21.1536 19.9024 20.4358 19.9024C19.6819 19.9024 19.0848 20.1078 18.6451 20.5179C18.2049 20.9285 17.9584 21.4368 17.9046 22.0431L14.7268 21.3742C14.8523 20.2328 15.4177 19.2247 16.4234 18.3504C17.4286 17.4767 18.7569 17.0392 20.4089 17.0392C22.3836 17.0392 23.8378 17.5076 24.7714 18.4441C25.7045 19.3806 26.1717 20.5806 26.1717 22.0431V28.5186C26.1717 29.3038 26.2256 29.9994 26.3333 30.6056H23.048C22.9581 30.2135 22.9133 29.6871 22.9133 29.027C22.0693 30.3293 20.7678 30.9804 19.0087 30.9804C17.6441 30.9804 16.5446 30.5881 15.7097 29.8031C14.875 29.018 14.4575 28.0904 14.4575 27.02Z" fill="#26295D"/>
<path fill-rule="evenodd" clip-rule="evenodd" d="M38.357 30.6216C38.2842 30.2535 38.2479 29.7657 38.2479 29.1583C37.902 29.7657 37.388 30.2211 36.7055 30.5249C36.0233 30.8285 35.2999 30.9804 34.5358 30.9804C32.9525 30.9804 31.7057 30.4697 30.7964 29.4483C29.8862 28.4268 29.4314 27.1527 29.4314 25.6247V17.0392H33.0617V24.8793C33.0617 25.6897 33.2707 26.3474 33.6896 26.8533C34.1078 27.3596 34.7173 27.6123 35.5184 27.6123C36.3003 27.6123 36.9194 27.3686 37.3744 26.881C37.8289 26.3934 38.0567 25.7449 38.0567 24.9346V17.0392H41.6871V28.1646C41.6871 29.0298 41.7322 29.8487 41.8236 30.6216H38.357Z" fill="#26295D"/>
<path fill-rule="evenodd" clip-rule="evenodd" d="M43.8889 26.9208L47.0105 26.2533C47.0468 26.8232 47.2797 27.2995 47.7088 27.6821C48.1374 28.0652 48.726 28.2562 49.4749 28.2562C50.0404 28.2562 50.4785 28.1318 50.7892 27.8824C51.0993 27.6334 51.2546 27.3215 51.2546 26.9476C51.2546 26.2892 50.771 25.8619 49.8034 25.6656L48.0236 25.2652C46.7641 24.9979 45.8194 24.5173 45.1896 23.823C44.5599 23.1285 44.245 22.3005 44.245 21.339C44.245 20.1465 44.7242 19.1315 45.6825 18.2944C46.6409 17.4577 47.841 17.0392 49.2832 17.0392C50.1957 17.0392 50.9987 17.1685 51.6927 17.4265C52.3863 17.6846 52.925 18.0141 53.3083 18.4146C53.6917 18.8152 53.9834 19.2204 54.1846 19.6297C54.3853 20.0396 54.5131 20.4403 54.5679 20.8317L51.5284 21.4993C51.4553 21.0365 51.241 20.6271 50.8852 20.2707C50.5291 19.9148 50.0041 19.7366 49.3105 19.7366C48.8356 19.7366 48.4296 19.8615 48.0921 20.1106C47.7543 20.3599 47.5855 20.6713 47.5855 21.0453C47.5855 21.6863 47.9961 22.0781 48.8178 22.2204L50.7344 22.621C52.0305 22.888 53.021 23.3782 53.7053 24.09C54.3899 24.8023 54.7321 25.6569 54.7321 26.6538C54.7321 27.8289 54.2757 28.8437 53.3631 29.6986C52.4499 30.5531 51.1631 30.9804 49.5024 30.9804C48.5529 30.9804 47.7041 30.8424 46.9557 30.5666C46.2069 30.2907 45.6278 29.9347 45.2171 29.4982C44.8063 29.0622 44.4956 28.6261 44.2861 28.1894C44.076 27.7533 43.9437 27.3307 43.8889 26.9208Z" fill="#26295D"/>
<path fill-rule="evenodd" clip-rule="evenodd" d="M61.5863 28.3313C62.4297 28.3313 63.1251 28.0948 63.6733 27.622C64.2205 27.1499 64.4945 26.3692 64.4945 25.2807V24.6921L61.5054 25.1471C60.41 25.3075 59.8627 25.8605 59.8627 26.8061C59.8627 27.2341 60.0148 27.5954 60.3205 27.8898C60.6254 28.1841 61.0476 28.3313 61.5863 28.3313ZM56.281 27.02C56.281 25.8964 56.6488 24.9959 57.3852 24.3175C58.1211 23.6399 59.0725 23.2117 60.2398 23.0331L63.498 22.5515C64.162 22.4623 64.4945 22.15 64.4945 21.6149C64.4945 21.1159 64.3012 20.7051 63.9156 20.3841C63.5293 20.063 62.9772 19.9024 62.2593 19.9024C61.5054 19.9024 60.9084 20.1078 60.4687 20.5179C60.0285 20.9285 59.782 21.4368 59.7281 22.0431L56.5504 21.3742C56.6759 20.2328 57.2412 19.2247 58.2469 18.3504C59.2521 17.4767 60.5806 17.0392 62.2325 17.0392C64.2071 17.0392 65.6614 17.5076 66.5949 18.4441C67.528 19.3806 67.9953 20.5806 67.9953 22.0431V28.5186C67.9953 29.3038 68.0492 29.9994 68.1569 30.6056H64.8716C64.7817 30.2135 64.7368 29.6871 64.7368 29.027C63.8929 30.3293 62.5913 30.9804 60.8321 30.9804C59.4676 30.9804 58.3683 30.5881 57.5334 29.8031C56.6985 29.018 56.281 28.0904 56.281 27.02Z" fill="#26295D"/>
<path fill-rule="evenodd" clip-rule="evenodd" d="M84.1634 30.4641H71.7712V11.3595H75.5384V26.9072H84.1634V30.4641Z" fill="#26295D"/>
<path fill-rule="evenodd" clip-rule="evenodd" d="M88.9051 22.5142H94.9949C94.9579 21.7843 94.6855 21.17 94.1783 20.6714C93.6706 20.1731 92.928 19.9236 91.95 19.9236C91.0643 19.9236 90.3446 20.1906 89.7911 20.7249C89.2374 21.259 88.9421 21.8558 88.9051 22.5142ZM95.3546 25.9327L98.4272 26.814C98.058 28.025 97.3339 29.0219 96.2544 29.8052C95.1747 30.5885 93.8324 30.9804 92.2267 30.9804C90.2704 30.9804 88.6099 30.3439 87.2444 29.0707C85.8783 27.798 85.196 26.0929 85.196 23.9564C85.196 21.9266 85.8605 20.2666 87.1892 18.9755C88.5177 17.6848 90.0859 17.0392 91.8947 17.0392C93.9984 17.0392 95.6455 17.6447 96.8354 18.8553C98.0259 20.0662 98.621 21.7309 98.621 23.8496C98.621 23.9922 98.6161 24.1525 98.6071 24.3302C98.5974 24.5083 98.5932 24.6509 98.5932 24.7575L98.5655 24.9445H88.8221C88.8587 25.799 89.2096 26.5114 89.8741 27.081C90.5383 27.6512 91.3316 27.9358 92.2547 27.9358C93.8227 27.9358 94.8564 27.2681 95.3546 25.9327Z" fill="#26295D"/>
<path fill-rule="evenodd" clip-rule="evenodd" d="M104.357 22.6515V30.4641H100.686V16.8819H104.246V18.5657C104.633 17.9033 105.185 17.3972 105.903 17.0474C106.62 16.698 107.375 16.5229 108.166 16.5229C109.767 16.5229 110.985 17.0246 111.823 18.0274C112.66 19.0306 113.078 20.3234 113.078 21.9061V30.4641H109.408V22.541C109.408 21.7313 109.201 21.078 108.787 20.581C108.373 20.0841 107.742 19.8356 106.896 19.8356C106.123 19.8356 105.507 20.1026 105.047 20.6362C104.587 21.1702 104.357 21.8418 104.357 22.6515Z" fill="#26295D"/>
<path fill-rule="evenodd" clip-rule="evenodd" d="M115.66 26.9208L118.782 26.2533C118.818 26.8232 119.051 27.2995 119.48 27.6821C119.909 28.0652 120.497 28.2562 121.246 28.2562C121.812 28.2562 122.25 28.1318 122.56 27.8824C122.87 27.6334 123.026 27.3215 123.026 26.9476C123.026 26.2892 122.542 25.8619 121.574 25.6656L119.795 25.2652C118.535 24.9979 117.59 24.5173 116.961 23.823C116.331 23.1285 116.016 22.3005 116.016 21.339C116.016 20.1465 116.495 19.1315 117.454 18.2944C118.412 17.4577 119.612 17.0392 121.054 17.0392C121.967 17.0392 122.77 17.1685 123.464 17.4265C124.157 17.6846 124.696 18.0141 125.079 18.4146C125.463 18.8152 125.755 19.2204 125.956 19.6297C126.156 20.0396 126.284 20.4403 126.339 20.8317L123.3 21.4993C123.226 21.0365 123.012 20.6271 122.656 20.2707C122.3 19.9148 121.775 19.7366 121.082 19.7366C120.607 19.7366 120.201 19.8615 119.863 20.1106C119.525 20.3599 119.357 20.6713 119.357 21.0453C119.357 21.6863 119.767 22.0781 120.589 22.2204L122.505 22.621C123.802 22.888 124.792 23.3782 125.477 24.09C126.161 24.8023 126.503 25.6569 126.503 26.6538C126.503 27.8289 126.047 28.8437 125.134 29.6986C124.221 30.5531 122.934 30.9804 121.273 30.9804C120.324 30.9804 119.475 30.8424 118.727 30.5666C117.978 30.2907 117.399 29.9347 116.988 29.4982C116.577 29.0622 116.267 28.6261 116.057 28.1894C115.847 27.7533 115.715 27.3307 115.66 26.9208Z" fill="#26295D"/>
<mask id="mask0_0_67" style="mask-type:luminance" maskUnits="userSpaceOnUse" x="124" y="0" width="18" height="21">
<path fill-rule="evenodd" clip-rule="evenodd" d="M124.438 0.516338H141.477V20.6536H124.438V0.516338Z" fill="white"/>
</mask>
<g mask="url(#mask0_0_67)">
<path fill-rule="evenodd" clip-rule="evenodd" d="M127.061 11.529C126.989 11.8943 126.67 12.1593 126.302 12.1593C126.252 12.1593 126.201 12.1543 126.15 12.1442C125.947 12.1042 125.771 11.9868 125.656 11.8137C125.54 11.6406 125.499 11.4327 125.539 11.2282C125.61 10.8627 125.929 10.5976 126.298 10.5976C126.348 10.5976 126.399 10.6026 126.449 10.6127C126.652 10.653 126.828 10.7703 126.943 10.9432C127.059 11.1163 127.101 11.3244 127.061 11.529ZM134.288 6.08312C134.469 6.11888 134.65 6.13627 134.829 6.13627C134.902 6.13627 134.974 6.13241 135.046 6.12674L135.861 9.3891L134.754 9.67502L136.34 11.3047L137.177 14.6554C136.649 14.8792 136.187 15.2464 135.851 15.7204L132.557 14.042L131.318 12.1178L130.797 13.1451L128.116 11.7793C128.119 11.7659 128.123 11.753 128.126 11.7395C128.213 11.2918 128.134 10.8503 127.932 10.4792L129.596 8.90765L130.375 9.74438L131.036 7.54736L133.139 5.5614C133.468 5.81324 133.855 5.99755 134.288 6.08312ZM138.973 14.4688C138.772 14.4288 138.571 14.4098 138.373 14.4096C138.373 14.4096 138.373 14.4096 138.372 14.4096C138.274 14.4096 138.176 14.4153 138.079 14.4247L137.242 11.0738L137.852 8.87457L136.763 9.15614L135.948 5.89714C136.755 5.53934 137.382 4.80474 137.565 3.86774C137.862 2.34517 136.876 0.86858 135.364 0.569617C135.182 0.533689 135.001 0.516308 134.823 0.516308V1.60905C134.933 1.60905 135.045 1.62008 135.154 1.64164C136.077 1.82412 136.68 2.72835 136.499 3.65717C136.342 4.46048 135.64 5.04354 134.829 5.04354C134.719 5.04354 134.607 5.03249 134.497 5.01094C133.574 4.82846 132.971 3.92422 133.152 2.99541C133.309 2.1921 134.012 1.60905 134.823 1.60905V0.516308C133.516 0.516308 132.348 1.44511 132.087 2.78486C131.94 3.54085 132.109 4.285 132.501 4.87992L130.383 6.87991L128.188 7.39645L128.959 8.22449L127.295 9.79686C127.105 9.6762 126.892 9.58644 126.658 9.54034C126.537 9.51644 126.417 9.5049 126.298 9.5049C125.426 9.5049 124.648 10.1242 124.473 11.0174C124.275 12.0326 124.932 13.0172 125.941 13.2166C126.062 13.2407 126.183 13.2521 126.302 13.2521C126.844 13.2521 127.35 13.0119 127.697 12.6155L130.373 13.9791L129.864 14.9845L132.117 14.8675L135.432 16.557C135.393 16.6782 135.358 16.8017 135.333 16.93C135.003 18.6215 136.097 20.2622 137.778 20.5946C137.98 20.6344 138.181 20.6536 138.379 20.6536C139.831 20.6536 141.128 19.6217 141.419 18.1332C141.749 16.4417 140.654 14.801 138.973 14.4688Z" fill="#3A90FB"/>
</g>
</g>
<defs>
<clipPath id="clip0_0_67">
<rect width="141.493" height="30.9804" fill="white"/>
</clipPath>
</defs>
</svg>
